<svg xmlns="http://www.w3.org/2000/svg"  viewBox="0 0 50 50" width="50px" height="50px"> <path d="m21.36,0.31c-7.12,0 -21.7,10.65 -21.07,23.57c0.63,12.92 11.75,24.86 23.68,25.76c11.93,0.9 25.2,-13.95 25.83,-23.39c0.63,-9.44 -10.34,-26.46 -22.77,-25.81l-5.67,-0.13zm2.8,2.91c15.69,-0.9 23.01,14.18 22.75,23.11c-0.25,8.93 -13.13,21.26 -22.94,20.61c-9.8,-0.64 -21.42,-13.83 -21.17,-22.76c0.25,-8.93 4.78,-19.3 21.1,-21.11l0.25,0.14zm1.74,4.49m-7.05,3.64c-4.34,0 -7.86,3.65 -7.86,8.13l0,11.61c0,4.48 3.52,8.13 7.86,8.13l11.23,0c4.34,0 7.86,-3.65 7.86,-8.13l0,-11.61c0,-4.48 -3.52,-8.13 -7.86,-8.13l-11.23,0zm0,0.57l11.23,0c4.02,0 7.3,3.39 7.3,7.55l0,11.61c0,4.16 -3.27,7.55 -7.3,7.55l-11.23,0c-4.02,0 -7.3,-3.39 -7.3,-7.55l0,-11.61c0,-4.16 3.27,-7.55 7.3,-7.55zm0,1.74c-3.1,0 -5.62,2.62 -5.62,5.8l0,11.61c0,3.2 2.52,5.8 5.62,5.8l11.23,0c3.1,0 5.62,-2.62 5.62,-5.8l0,-11.61c0,-3.2 -2.52,-5.8 -5.62,-5.8l-11.23,0zm0,0.57l11.23,0c2.79,0 5.06,2.34 5.06,5.22l0,11.61c0,2.88 -2.26,5.22 -5.06,5.22l-11.23,0c-2.79,0 -5.06,-2.34 -5.06,-5.22l0,-11.61c0,-2.88 2.26,-5.22 5.06,-5.22zm12.64,1.74c-0.62,0 -1.13,0.25 -1.48,0.64c-0.33,0.37 -0.5,0.88 -0.5,1.39c0,0.5 0.17,1.01 0.5,1.39c0.33,0.39 0.84,0.64 1.48,0.64c0.63,0 1.13,-0.25 1.48,-0.64c0.33,-0.37 0.5,-0.88 0.5,-1.39c0,-0.5 -0.17,-1.01 -0.5,-1.39c-0.33,-0.39 -0.84,-0.64 -1.48,-0.64zm0,0.57c0.5,0 0.83,0.19 1.06,0.45c0.23,0.27 0.35,0.64 0.35,1.01c0,0.37 -0.12,0.73 -0.35,1.01c-0.23,0.27 -0.56,0.45 -1.06,0.45c-0.49,0 -0.83,-0.19 -1.06,-0.45c-0.23,-0.27 -0.35,-0.64 -0.35,-1.01c0,-0.37 0.12,-0.73 0.35,-1.01c0.23,-0.27 0.57,-0.45 1.06,-0.45zm-7.02,1.74c-3.72,0 -6.74,3.13 -6.74,6.96c0,3.84 3.02,6.96 6.74,6.96c3.72,0 6.74,-3.13 6.74,-6.96c0,-3.84 -3.02,-6.96 -6.74,-6.96zm0,0.57c3.41,0 6.18,2.85 6.18,6.39c0,3.54 -2.77,6.39 -6.18,6.39c-3.41,0 -6.18,-2.85 -6.18,-6.39c0,-3.54 2.77,-6.39 6.18,-6.39zm0,1.74c-2.47,0 -4.5,2.09 -4.5,4.65c0,2.55 2.01,4.65 4.5,4.65c2.47,0 4.5,-2.09 4.5,-4.65c0,-2.55 -2.01,-4.65 -4.5,-4.65zm0,0.57c2.17,0 3.94,1.82 3.94,4.06c0,2.25 -1.76,4.06 -3.94,4.06c-2.17,0 -3.94,-1.82 -3.94,-4.06c0,-2.25 1.76,-4.06 3.94,-4.06z" fill="#000000"/></svg>